<svg
  width="95"
  height="31"
  viewBox="0 0 95 31"
  fill="none"
  xmlns="http://www.w3.org/2000/svg"
>
<g filter="url(#filter0_d_0_1)">
<path
      d="M11.4141 9.74609C11.2969 9.74609 11.165 9.77539 11.0186 9.83398C10.8721 9.88672 10.7256 9.95117 10.5791 10.0273C10.4326 10.1035 10.292 10.1826 10.1572 10.2646C10.0225 10.3467 9.90527 10.4111 9.80566 10.458L9.00586 13.6221C8.97656 13.7451 8.90332 13.8389 8.78613 13.9033C8.66895 13.9678 8.56055 14 8.46094 14C8.14453 14 7.92773 13.9385 7.81055 13.8154C7.69922 13.6865 7.64355 13.5195 7.64355 13.3145C7.64355 13.2266 7.64941 13.1387 7.66113 13.0508C7.67871 12.957 7.69922 12.8604 7.72266 12.7607L7.75781 12.6113C7.79297 12.4531 7.83984 12.2539 7.89844 12.0137C7.96289 11.7734 8.03027 11.5215 8.10059 11.2578C8.1709 10.9883 8.24121 10.7188 8.31152 10.4492C8.3877 10.1738 8.45801 9.92188 8.52246 9.69336C8.58691 9.4707 8.68066 9.13965 8.80371 8.7002C8.93262 8.26074 9.07324 7.76855 9.22559 7.22363C9.38379 6.67871 9.54492 6.11035 9.70898 5.51855C9.87891 4.9209 10.0371 4.35254 10.1836 3.81348C10.3359 3.27441 10.4707 2.79688 10.5879 2.38086C10.7051 1.95898 10.7871 1.64844 10.834 1.44922C10.8867 1.36719 10.9688 1.2998 11.0801 1.24707C11.1914 1.19434 11.3232 1.16797 11.4756 1.16797C11.5811 1.16797 11.6895 1.18262 11.8008 1.21191C11.9121 1.23535 12.0117 1.27637 12.0996 1.33496C12.1934 1.3877 12.2695 1.45801 12.3281 1.5459C12.3867 1.62793 12.416 1.72461 12.416 1.83594C12.416 1.91211 12.3984 2.00293 12.3633 2.1084C12.0117 3.12793 11.6631 4.18555 11.3174 5.28125C10.9717 6.37109 10.6582 7.47559 10.377 8.59473C10.4531 8.54785 10.5938 8.45117 10.7988 8.30469C11.0039 8.1582 11.2295 7.98828 11.4756 7.79492C11.7275 7.60156 11.9795 7.39941 12.2314 7.18848C12.4834 6.97754 12.6943 6.78711 12.8643 6.61719C12.9814 6.5 13.0986 6.37988 13.2158 6.25684C13.3389 6.12793 13.4531 6.00781 13.5586 5.89648C13.6699 5.7793 13.7666 5.67676 13.8486 5.58887C13.9307 5.49512 13.9951 5.42188 14.042 5.36914C14.1533 5.24023 14.2734 5.13477 14.4023 5.05273C14.5371 4.96484 14.6719 4.9209 14.8066 4.9209C14.9355 4.9209 15.0527 4.94141 15.1582 4.98242C15.2637 5.02344 15.3545 5.07617 15.4307 5.14062C15.5068 5.19922 15.5654 5.26953 15.6064 5.35156C15.6475 5.42773 15.668 5.50098 15.668 5.57129C15.668 5.65918 15.6475 5.75293 15.6064 5.85254C15.5654 5.95215 15.5156 6.04883 15.457 6.14258C15.4043 6.23633 15.3457 6.32422 15.2812 6.40625C15.2168 6.48242 15.1611 6.54102 15.1143 6.58203C14.9561 6.72266 14.7773 6.87793 14.5781 7.04785C14.3789 7.21191 14.1709 7.38184 13.9541 7.55762C13.7373 7.72754 13.5146 7.90039 13.2861 8.07617C13.0635 8.24609 12.8467 8.41016 12.6357 8.56836C13.0049 8.77344 13.3066 9.04883 13.541 9.39453C13.7812 9.73438 13.9717 10.1152 14.1123 10.5371C14.2529 10.9531 14.3496 11.3926 14.4023 11.8555C14.4551 12.3184 14.4814 12.7695 14.4814 13.209C14.4814 13.2441 14.4785 13.2998 14.4727 13.376C14.4668 13.4463 14.4551 13.5137 14.4375 13.5781C14.4082 13.6836 14.373 13.7803 14.332 13.8682C14.291 13.9561 14.2354 14.0293 14.165 14.0879C14.1006 14.1523 14.0186 14.2021 13.9189 14.2373C13.8252 14.2725 13.708 14.29 13.5674 14.29C13.4326 14.29 13.3184 14.2666 13.2246 14.2197C13.1309 14.1729 13.0518 14.1113 12.9873 14.0352C12.9287 13.959 12.8848 13.874 12.8555 13.7803C12.8262 13.6865 12.8115 13.5928 12.8115 13.499C12.8115 13.2061 12.8027 12.9043 12.7852 12.5938C12.7676 12.2773 12.7324 11.9727 12.6797 11.6797C12.627 11.3867 12.5537 11.1113 12.46 10.8535C12.3721 10.5898 12.2549 10.3643 12.1084 10.1768C12.0029 10.042 11.9033 9.93652 11.8096 9.86035C11.7217 9.78418 11.6133 9.74609 11.4844 9.74609H11.4141ZM22.6465 6.78418C22.4414 6.78418 22.2217 6.83398 21.9873 6.93359C21.7529 7.02734 21.5098 7.15625 21.2578 7.32031C21.0059 7.48438 20.748 7.67188 20.4844 7.88281C20.2266 8.08789 19.9717 8.30176 19.7197 8.52441C19.5908 8.63574 19.4678 8.73828 19.3506 8.83203C19.2334 8.91992 19.1162 8.9873 18.999 9.03418C18.917 9.16895 18.8291 9.34766 18.7354 9.57031C18.6475 9.78711 18.5596 10.0273 18.4717 10.291C18.3838 10.5488 18.2988 10.8154 18.2168 11.0908C18.1406 11.3604 18.0762 11.6123 18.0234 11.8467C17.9941 11.9697 17.9707 12.0898 17.9531 12.207C17.9355 12.3242 17.915 12.4502 17.8916 12.585C17.8682 12.7139 17.8389 12.8545 17.8037 13.0068C17.7744 13.1592 17.7363 13.3291 17.6895 13.5166C17.6602 13.6279 17.6133 13.7188 17.5488 13.7891C17.4844 13.8535 17.417 13.9033 17.3467 13.9385C17.2764 13.9736 17.209 13.9941 17.1445 14C17.0801 14.0117 17.0303 14.0176 16.9951 14.0176C16.7725 14.0176 16.5908 13.9648 16.4502 13.8594C16.3096 13.7539 16.2393 13.5488 16.2393 13.2441C16.2393 13.1621 16.2422 13.0771 16.248 12.9893C16.2539 12.8955 16.2715 12.793 16.3008 12.6816C16.4297 12.125 16.5527 11.624 16.6699 11.1787C16.793 10.7334 16.916 10.3203 17.0391 9.93945C17.1621 9.55859 17.2852 9.20117 17.4082 8.86719C17.5371 8.52734 17.666 8.1875 17.7949 7.84766C17.9297 7.50195 18.0674 7.14746 18.208 6.78418C18.3545 6.41504 18.5098 6.00781 18.6738 5.5625C18.709 5.46289 18.7998 5.38086 18.9463 5.31641C19.0986 5.24609 19.2598 5.21094 19.4297 5.21094C19.6523 5.21094 19.834 5.26074 19.9746 5.36035C20.1211 5.45996 20.1943 5.60352 20.1943 5.79102C20.1943 5.80859 20.1885 5.84082 20.1768 5.8877C20.165 5.93457 20.1475 5.98438 20.124 6.03711L19.7373 6.95117C19.9834 6.75781 20.2383 6.56445 20.502 6.37109C20.7715 6.17773 21.0469 6.00488 21.3281 5.85254C21.6094 5.69434 21.8906 5.56836 22.1719 5.47461C22.459 5.375 22.7402 5.3252 23.0156 5.3252C23.5781 5.3252 24.0176 5.47754 24.334 5.78223C24.6504 6.08105 24.8086 6.54688 24.8086 7.17969C24.8086 7.54297 24.7441 7.95605 24.6152 8.41895C24.4922 8.88184 24.334 9.37988 24.1406 9.91309C23.9531 10.4404 23.748 10.9971 23.5254 11.583C23.3086 12.1631 23.1064 12.7549 22.9189 13.3584C22.8662 13.5225 22.8105 13.6602 22.752 13.7715C22.6992 13.8828 22.6348 13.9707 22.5586 14.0352C22.4824 14.1055 22.3916 14.1553 22.2861 14.1846C22.1865 14.2139 22.0635 14.2285 21.917 14.2285C21.6885 14.2285 21.5303 14.1846 21.4424 14.0967C21.3545 14.0146 21.3105 13.8799 21.3105 13.6924C21.3105 13.5283 21.334 13.3291 21.3809 13.0947C21.4336 12.8545 21.5039 12.5938 21.5918 12.3125C21.6855 12.0254 21.791 11.7207 21.9082 11.3984C22.0312 11.0762 22.1631 10.748 22.3037 10.4141C22.415 10.1445 22.5234 9.875 22.6289 9.60547C22.7402 9.33594 22.8369 9.0752 22.9189 8.82324C23.0068 8.57129 23.0771 8.33105 23.1299 8.10254C23.1826 7.87402 23.209 7.66309 23.209 7.46973C23.209 7.28809 23.168 7.12988 23.0859 6.99512C23.0098 6.85449 22.8633 6.78418 22.6465 6.78418ZM26.4434 10.6338C26.5312 10.2764 26.666 9.89844 26.8477 9.5C27.0352 9.0957 27.2783 8.68848 27.5771 8.27832C27.876 7.86816 28.2334 7.4668 28.6494 7.07422C29.0713 6.68164 29.5576 6.31543 30.1084 5.97559C30.1963 5.92285 30.3311 5.86719 30.5127 5.80859C30.6943 5.74414 30.8818 5.70605 31.0752 5.69434C31.3037 5.44824 31.6113 5.3252 31.998 5.3252C32.4551 5.3252 32.8389 5.44238 33.1494 5.67676C33.4658 5.90527 33.7266 6.21875 33.9316 6.61719C33.9961 6.74609 34.0547 6.87207 34.1074 6.99512C34.166 7.11816 34.2129 7.25 34.248 7.39062C34.2891 7.52539 34.3213 7.67188 34.3447 7.83008C34.3682 7.98828 34.3799 8.16699 34.3799 8.36621C34.3799 8.8291 34.3066 9.30078 34.1602 9.78125C34.0137 10.2617 33.8057 10.7305 33.5361 11.1875C33.2666 11.6445 32.9385 12.084 32.5518 12.5059C32.1709 12.9219 31.7461 13.2969 31.2773 13.6309C30.9609 13.8594 30.6094 14.0352 30.2227 14.1582C29.8418 14.2871 29.4141 14.3516 28.9395 14.3516C28.4883 14.3516 28.0957 14.29 27.7617 14.167C27.4336 14.0498 27.1582 13.8799 26.9355 13.6572C26.7188 13.4346 26.5547 13.168 26.4434 12.8574C26.3379 12.5469 26.2852 12.2012 26.2852 11.8203C26.2852 11.4512 26.3379 11.0557 26.4434 10.6338ZM27.9023 10.748C27.8672 10.8828 27.8408 11.0117 27.8232 11.1348C27.8115 11.252 27.8057 11.3662 27.8057 11.4775C27.8057 11.6709 27.8291 11.8525 27.876 12.0225C27.9287 12.1865 28.0107 12.3301 28.1221 12.4531C28.2334 12.5703 28.3711 12.6641 28.5352 12.7344C28.7051 12.7988 28.9102 12.8311 29.1504 12.8311C29.5957 12.8311 30.0088 12.7197 30.3896 12.4971C30.7764 12.2686 31.1191 11.9844 31.418 11.6445C31.7168 11.3047 31.9658 10.9414 32.165 10.5547C32.3701 10.1621 32.5137 9.80176 32.5957 9.47363C32.6484 9.26855 32.6924 9.0752 32.7275 8.89355C32.7686 8.71191 32.7891 8.54492 32.7891 8.39258C32.7891 8.24023 32.7598 8.09961 32.7012 7.9707C32.6484 7.83594 32.5781 7.68652 32.4902 7.52246C32.4375 7.42285 32.3848 7.32031 32.332 7.21484C32.2793 7.10352 32.2324 6.99512 32.1914 6.88965C32.1445 6.97168 32.0947 7.04492 32.042 7.10938C31.9893 7.16797 31.9102 7.22363 31.8047 7.27637C31.6992 7.32324 31.5557 7.36719 31.374 7.4082C31.1924 7.44922 30.9551 7.48438 30.6621 7.51367C30.4688 7.57812 30.2725 7.67773 30.0732 7.8125C29.874 7.94727 29.6777 8.10547 29.4844 8.28711C29.2969 8.46875 29.1152 8.66504 28.9395 8.87598C28.7695 9.08691 28.6143 9.30371 28.4736 9.52637C28.3389 9.74316 28.2188 9.95703 28.1133 10.168C28.0137 10.3789 27.9434 10.5723 27.9023 10.748ZM37.0078 6.14258C37.1133 5.91406 37.2334 5.76172 37.3682 5.68555C37.5029 5.60352 37.6582 5.5625 37.834 5.5625C38.0039 5.5625 38.1475 5.58887 38.2646 5.6416C38.3818 5.69434 38.4756 5.76465 38.5459 5.85254C38.6162 5.94043 38.666 6.04297 38.6953 6.16016C38.7246 6.27734 38.7393 6.40332 38.7393 6.53809C38.7393 6.5791 38.7393 6.62012 38.7393 6.66113C38.7393 6.69629 38.7363 6.73438 38.7305 6.77539C38.7246 6.82812 38.71 6.9248 38.6865 7.06543C38.6631 7.2002 38.6338 7.36133 38.5986 7.54883C38.5693 7.73633 38.5342 7.93555 38.4932 8.14648C38.458 8.35156 38.4229 8.54785 38.3877 8.73535C38.3584 8.92285 38.3291 9.08691 38.2998 9.22754C38.2764 9.36816 38.2588 9.46484 38.2471 9.51758C38.2354 9.57617 38.2207 9.66113 38.2031 9.77246C38.1855 9.88379 38.168 10.0127 38.1504 10.1592C38.1328 10.2998 38.1182 10.4521 38.1064 10.6162C38.0947 10.7803 38.0889 10.9443 38.0889 11.1084C38.0889 11.2666 38.0947 11.4189 38.1064 11.5654C38.1182 11.7061 38.1387 11.832 38.168 11.9434C38.2031 12.0488 38.2441 12.1338 38.291 12.1982C38.3438 12.2627 38.4082 12.2949 38.4844 12.2949C38.5371 12.2949 38.6133 12.2539 38.7129 12.1719C38.8184 12.084 38.9268 11.9814 39.0381 11.8643C39.1553 11.7471 39.2695 11.624 39.3809 11.4951C39.4922 11.3604 39.583 11.249 39.6533 11.1611C40.0342 10.6924 40.3828 10.2178 40.6992 9.7373C41.0215 9.25098 41.3203 8.76172 41.5957 8.26953C41.7012 8.07617 41.7803 7.87988 41.833 7.68066C41.8916 7.48145 41.959 7.30273 42.0352 7.14453C42.1113 6.98047 42.2168 6.84863 42.3516 6.74902C42.4922 6.64355 42.7002 6.59082 42.9756 6.59082C43.1221 6.59082 43.2715 6.64062 43.4238 6.74023C43.5762 6.83984 43.6816 6.9834 43.7402 7.1709C43.7227 7.3877 43.6963 7.61035 43.6611 7.83887C43.626 8.06738 43.5938 8.30176 43.5645 8.54199C43.5352 8.77637 43.5088 9.01074 43.4854 9.24512C43.4619 9.47949 43.4502 9.70801 43.4502 9.93066C43.4502 10.2764 43.4854 10.5986 43.5557 10.8975C43.626 11.1904 43.7549 11.4395 43.9424 11.6445C44.1709 11.3574 44.3965 11.0322 44.6191 10.6689C44.8477 10.3057 45.0703 9.92773 45.2871 9.53516C45.5039 9.14258 45.709 8.74707 45.9023 8.34863C46.1016 7.94434 46.2861 7.56055 46.4561 7.19727C46.4678 7.16797 46.4736 7.1416 46.4736 7.11816C46.4795 7.08887 46.4824 7.05957 46.4824 7.03027V6.95117C46.4824 6.76953 46.5322 6.58203 46.6318 6.38867C46.7373 6.19531 46.8604 6.01953 47.001 5.86133C47.1416 5.70312 47.2852 5.57422 47.4316 5.47461C47.584 5.375 47.71 5.3252 47.8096 5.3252C48.0557 5.3252 48.249 5.39258 48.3896 5.52734C48.5303 5.66211 48.6006 5.84082 48.6006 6.06348C48.6006 6.13379 48.5859 6.22168 48.5566 6.32715C48.5332 6.43262 48.4922 6.53809 48.4336 6.64355L45.4717 11.8643L45.252 12.2949C45.1582 12.4766 45.0645 12.6523 44.9707 12.8223C44.8828 12.9922 44.7832 13.1416 44.6719 13.2705C44.5664 13.3994 44.4463 13.502 44.3115 13.5781C44.1826 13.6543 44.0332 13.6924 43.8633 13.6924C43.6348 13.6924 43.4297 13.6279 43.248 13.499C43.0723 13.3701 42.9199 13.2119 42.791 13.0244C42.6621 12.8369 42.5537 12.6348 42.4658 12.418C42.3838 12.1953 42.3223 11.9961 42.2812 11.8203L41.9561 10.4141C41.9385 10.4141 41.877 10.4756 41.7715 10.5986C41.666 10.7217 41.5342 10.8799 41.376 11.0732C41.2178 11.2666 41.0449 11.4805 40.8574 11.7148C40.6699 11.9434 40.4854 12.166 40.3037 12.3828C40.1279 12.5938 39.9639 12.7871 39.8115 12.9629C39.665 13.1328 39.5508 13.2529 39.4688 13.3232C39.3867 13.3936 39.2988 13.4639 39.2051 13.5342C39.1172 13.6045 39.0293 13.666 38.9414 13.7188C38.8535 13.7715 38.7686 13.8154 38.6865 13.8506C38.6104 13.8857 38.5459 13.9033 38.4932 13.9033C38.1064 13.9033 37.7842 13.8125 37.5264 13.6309C37.2744 13.4492 37.0723 13.2119 36.9199 12.9189C36.7734 12.626 36.6709 12.3008 36.6123 11.9434C36.5537 11.5801 36.5244 11.2168 36.5244 10.8535C36.5244 10.5312 36.5391 10.2061 36.5684 9.87793C36.6035 9.5498 36.6416 9.22754 36.6826 8.91113C36.7295 8.58887 36.7764 8.27832 36.8232 7.97949C36.876 7.68066 36.9199 7.40234 36.9551 7.14453C36.9609 7.09766 36.9639 7.04492 36.9639 6.98633C36.9697 6.92188 36.9727 6.85742 36.9727 6.79297V6.56445C36.9727 6.4707 36.9727 6.38574 36.9727 6.30957C36.9785 6.22754 36.9902 6.17188 37.0078 6.14258ZM65.8535 10.6338C65.9414 10.2764 66.0762 9.89844 66.2578 9.5C66.4453 9.0957 66.6885 8.68848 66.9873 8.27832C67.2861 7.86816 67.6436 7.4668 68.0596 7.07422C68.4814 6.68164 68.9678 6.31543 69.5186 5.97559C69.6064 5.92285 69.7412 5.86719 69.9229 5.80859C70.1045 5.74414 70.292 5.70605 70.4854 5.69434C70.7139 5.44824 71.0215 5.3252 71.4082 5.3252C71.8652 5.3252 72.249 5.44238 72.5596 5.67676C72.876 5.90527 73.1367 6.21875 73.3418 6.61719C73.4062 6.74609 73.4648 6.87207 73.5176 6.99512C73.5762 7.11816 73.623 7.25 73.6582 7.39062C73.6992 7.52539 73.7314 7.67188 73.7549 7.83008C73.7783 7.98828 73.79 8.16699 73.79 8.36621C73.79 8.8291 73.7168 9.30078 73.5703 9.78125C73.4238 10.2617 73.2158 10.7305 72.9463 11.1875C72.6768 11.6445 72.3486 12.084 71.9619 12.5059C71.5811 12.9219 71.1562 13.2969 70.6875 13.6309C70.3711 13.8594 70.0195 14.0352 69.6328 14.1582C69.252 14.2871 68.8242 14.3516 68.3496 14.3516C67.8984 14.3516 67.5059 14.29 67.1719 14.167C66.8438 14.0498 66.5684 13.8799 66.3457 13.6572C66.1289 13.4346 65.9648 13.168 65.8535 12.8574C65.748 12.5469 65.6953 12.2012 65.6953 11.8203C65.6953 11.4512 65.748 11.0557 65.8535 10.6338ZM67.3125 10.748C67.2773 10.8828 67.251 11.0117 67.2334 11.1348C67.2217 11.252 67.2158 11.3662 67.2158 11.4775C67.2158 11.6709 67.2393 11.8525 67.2861 12.0225C67.3389 12.1865 67.4209 12.3301 67.5322 12.4531C67.6436 12.5703 67.7812 12.6641 67.9453 12.7344C68.1152 12.7988 68.3203 12.8311 68.5605 12.8311C69.0059 12.8311 69.4189 12.7197 69.7998 12.4971C70.1865 12.2686 70.5293 11.9844 70.8281 11.6445C71.127 11.3047 71.376 10.9414 71.5752 10.5547C71.7803 10.1621 71.9238 9.80176 72.0059 9.47363C72.0586 9.26855 72.1025 9.0752 72.1377 8.89355C72.1787 8.71191 72.1992 8.54492 72.1992 8.39258C72.1992 8.24023 72.1699 8.09961 72.1113 7.9707C72.0586 7.83594 71.9883 7.68652 71.9004 7.52246C71.8477 7.42285 71.7949 7.32031 71.7422 7.21484C71.6895 7.10352 71.6426 6.99512 71.6016 6.88965C71.5547 6.97168 71.5049 7.04492 71.4521 7.10938C71.3994 7.16797 71.3203 7.22363 71.2148 7.27637C71.1094 7.32324 70.9658 7.36719 70.7842 7.4082C70.6025 7.44922 70.3652 7.48438 70.0723 7.51367C69.8789 7.57812 69.6826 7.67773 69.4834 7.8125C69.2842 7.94727 69.0879 8.10547 68.8945 8.28711C68.707 8.46875 68.5254 8.66504 68.3496 8.87598C68.1797 9.08691 68.0244 9.30371 67.8838 9.52637C67.749 9.74316 67.6289 9.95703 67.5234 10.168C67.4238 10.3789 67.3535 10.5723 67.3125 10.748ZM75.4688 13.0947C75.5449 12.6846 75.6328 12.2334 75.7324 11.7412C75.832 11.249 75.9346 10.751 76.04 10.2471C76.1455 9.74316 76.248 9.24805 76.3477 8.76172C76.4473 8.27539 76.5322 7.83008 76.6025 7.42578C76.5967 7.36719 76.5938 7.31738 76.5938 7.27637C76.5938 7.22949 76.5938 7.17969 76.5938 7.12695C76.5938 6.94531 76.6055 6.76367 76.6289 6.58203C76.6523 6.40039 76.6846 6.2334 76.7256 6.08105C76.79 5.8584 76.8604 5.70898 76.9365 5.63281C77.0186 5.55078 77.1475 5.50977 77.3232 5.50977C77.4932 5.50977 77.6279 5.54492 77.7275 5.61523C77.833 5.67969 77.915 5.76758 77.9736 5.87891C78.0322 5.99023 78.0703 6.11914 78.0879 6.26562C78.1055 6.40625 78.1143 6.55273 78.1143 6.70508C78.1143 6.78711 78.1113 6.87793 78.1055 6.97754C78.0996 7.07715 78.0967 7.15625 78.0967 7.21484C78.2607 7.04492 78.4336 6.87207 78.6152 6.69629C78.8027 6.51465 78.999 6.35352 79.2041 6.21289C79.415 6.06641 79.6348 5.94629 79.8633 5.85254C80.0977 5.75879 80.3408 5.71191 80.5928 5.71191C80.6924 5.71191 80.7891 5.7207 80.8828 5.73828C80.9824 5.75586 81.082 5.7793 81.1816 5.80859C81.2988 5.83789 81.4189 5.87891 81.542 5.93164C81.6709 5.97852 81.7939 6.0459 81.9111 6.13379C82.1045 6.28027 82.2656 6.46484 82.3945 6.6875C82.5293 6.9043 82.5967 7.12695 82.5967 7.35547C82.5967 7.44336 82.5791 7.54004 82.5439 7.64551C82.5088 7.74512 82.459 7.83887 82.3945 7.92676C82.3359 8.00879 82.2656 8.0791 82.1836 8.1377C82.1016 8.19043 82.0107 8.2168 81.9111 8.2168C81.8115 8.2168 81.6885 8.19336 81.542 8.14648C81.4014 8.09375 81.2842 8.02637 81.1904 7.94434C81.1494 7.90918 81.1055 7.85938 81.0586 7.79492C81.0176 7.73047 80.9766 7.66602 80.9355 7.60156C80.9004 7.53711 80.8652 7.47852 80.8301 7.42578C80.8008 7.36719 80.7773 7.3291 80.7598 7.31152C80.7305 7.30566 80.6982 7.30273 80.6631 7.30273C80.6279 7.29688 80.5957 7.29395 80.5664 7.29395C80.2676 7.29395 79.9834 7.37012 79.7139 7.52246C79.4443 7.6748 79.1924 7.8623 78.958 8.08496C78.7236 8.30176 78.5068 8.53613 78.3076 8.78809C78.1143 9.03418 77.9443 9.25684 77.7979 9.45605C77.6807 9.93066 77.5488 10.4375 77.4023 10.9766C77.2617 11.5098 77.1211 12.0693 76.9805 12.6553V12.875C76.9805 13.0508 76.9746 13.2295 76.9629 13.4111C76.9512 13.5928 76.916 13.7539 76.8574 13.8945C76.793 13.9824 76.6992 14.0557 76.5762 14.1143C76.459 14.1787 76.3213 14.2109 76.1631 14.2109C75.917 14.2109 75.7324 14.1318 75.6094 13.9736C75.4863 13.8096 75.4248 13.6191 75.4248 13.4023C75.4248 13.3027 75.4395 13.2002 75.4688 13.0947ZM82.834 10.6074C82.834 10.3555 82.9014 10.1416 83.0361 9.96582C83.1709 9.79004 83.3496 9.67285 83.5723 9.61426C83.6367 9.48535 83.7363 9.3125 83.8711 9.0957C84.0059 8.87305 84.1729 8.63281 84.3721 8.375C84.5713 8.11719 84.7969 7.85938 85.0488 7.60156C85.3066 7.33789 85.5879 7.10059 85.8926 6.88965C86.2031 6.67285 86.5342 6.49707 86.8857 6.3623C87.2432 6.22754 87.6211 6.16016 88.0195 6.16016C88.3594 6.16016 88.6553 6.20117 88.9072 6.2832C89.1592 6.36523 89.3672 6.47949 89.5312 6.62598C89.6953 6.77246 89.8184 6.94824 89.9004 7.15332C89.9824 7.35254 90.0234 7.56934 90.0234 7.80371C90.0234 8.00293 89.9971 8.19336 89.9443 8.375C89.8623 8.70312 89.71 8.99023 89.4873 9.23633C89.2646 9.48242 89.001 9.69922 88.6963 9.88672C88.3975 10.0684 88.0693 10.2207 87.7119 10.3438C87.3604 10.4668 87.0059 10.5693 86.6484 10.6514C86.2969 10.7334 85.957 10.7979 85.6289 10.8447C85.3008 10.8857 85.0166 10.918 84.7764 10.9414C84.7236 11.0469 84.6768 11.1816 84.6357 11.3457C84.6006 11.5039 84.583 11.6592 84.583 11.8115C84.583 12.1514 84.7178 12.415 84.9873 12.6025C85.2568 12.79 85.6289 12.8838 86.1035 12.8838C86.3789 12.8838 86.6426 12.8545 86.8945 12.7959C87.1465 12.7314 87.3838 12.6523 87.6064 12.5586C87.835 12.459 88.0488 12.3535 88.248 12.2422C88.4473 12.125 88.6289 12.0107 88.793 11.8994C89.0039 11.7588 89.2031 11.6416 89.3906 11.5479C89.584 11.4482 89.7539 11.3984 89.9004 11.3984C90.0469 11.3984 90.1406 11.4365 90.1816 11.5127C90.2227 11.583 90.2432 11.6592 90.2432 11.7412C90.2432 11.7881 90.2402 11.835 90.2344 11.8818C90.2344 11.9229 90.2314 11.958 90.2256 11.9873C90.1963 12.1396 90.1377 12.292 90.0498 12.4443C89.9619 12.5967 89.8506 12.7285 89.7158 12.8398C89.1064 13.3203 88.4795 13.6631 87.835 13.8682C87.1963 14.0732 86.5137 14.1758 85.7871 14.1758C85.6465 14.1758 85.4795 14.167 85.2861 14.1494C85.0986 14.1318 84.9023 14.0967 84.6973 14.0439C84.4922 13.9912 84.29 13.915 84.0908 13.8154C83.8916 13.7158 83.7129 13.584 83.5547 13.4199C83.4023 13.2559 83.2764 13.0537 83.1768 12.8135C83.083 12.5732 83.0361 12.2832 83.0361 11.9434C83.0361 11.668 83.0742 11.3604 83.1504 11.0205C83.0742 11.0088 83.001 10.9707 82.9307 10.9062C82.8662 10.8359 82.834 10.7363 82.834 10.6074ZM88.3359 8.17285C88.3477 8.14355 88.3535 8.11719 88.3535 8.09375C88.3535 8.07031 88.3535 8.04395 88.3535 8.01465C88.3535 7.85645 88.2949 7.73926 88.1777 7.66309C88.0605 7.58105 87.9199 7.54004 87.7559 7.54004C87.498 7.54004 87.2432 7.60742 86.9912 7.74219C86.7451 7.87695 86.5107 8.04688 86.2881 8.25195C86.0713 8.45117 85.8779 8.66797 85.708 8.90234C85.5381 9.13086 85.4062 9.33887 85.3125 9.52637C85.7344 9.49121 86.1211 9.43555 86.4727 9.35938C86.8242 9.27734 87.1289 9.17773 87.3867 9.06055C87.6504 8.9375 87.8613 8.80273 88.0195 8.65625C88.1836 8.50391 88.2891 8.34277 88.3359 8.17285Z"
      fill="white"
    />
<path
      d="M48.6797 13.2266C48.791 12.7812 48.9463 12.2861 49.1455 11.7412C49.3447 11.1963 49.5732 10.6279 49.8311 10.0361C50.0947 9.44434 50.3818 8.84375 50.6924 8.23438C51.0088 7.625 51.334 7.0332 51.668 6.45898C52.0078 5.87891 52.3535 5.33398 52.7051 4.82422C53.0625 4.30859 53.4141 3.84863 53.7598 3.44434C53.8594 3.33301 53.9824 3.19531 54.1289 3.03125C54.2812 2.86719 54.4482 2.69727 54.6299 2.52148C54.8174 2.3457 55.0107 2.17285 55.21 2.00293C55.415 1.82715 55.6201 1.67188 55.8252 1.53711C56.0303 1.39648 56.2295 1.28516 56.4229 1.20312C56.6162 1.11523 56.7949 1.07129 56.959 1.07129C57.1816 1.07129 57.3838 1.10938 57.5654 1.18555C57.7529 1.26172 57.9111 1.37012 58.04 1.51074C58.1748 1.65137 58.2773 1.82129 58.3477 2.02051C58.4238 2.21387 58.4619 2.42773 58.4619 2.66211C58.4619 2.76172 58.4531 2.86133 58.4355 2.96094C58.4238 3.06055 58.4062 3.16309 58.3828 3.26855L57.4072 8.17285C57.4951 8.03809 57.6182 7.85645 57.7764 7.62793C57.9346 7.39355 58.1133 7.13574 58.3125 6.85449C58.5117 6.56738 58.7197 6.27148 58.9365 5.9668C59.1533 5.65625 59.3643 5.35742 59.5693 5.07031C59.7803 4.7832 59.9736 4.52246 60.1494 4.28809C60.3252 4.04785 60.4688 3.85449 60.5801 3.70801L60.7383 3.50586C60.8438 3.37109 60.9727 3.21289 61.125 3.03125C61.2773 2.84961 61.4443 2.65918 61.626 2.45996C61.8135 2.26074 62.0098 2.06445 62.2148 1.87109C62.4199 1.67773 62.6279 1.50488 62.8389 1.35254C63.0498 1.2002 63.2578 1.07715 63.4629 0.983398C63.668 0.883789 63.8643 0.833984 64.0518 0.833984C64.1924 0.833984 64.3096 0.866211 64.4033 0.930664C64.4971 0.995117 64.5732 1.08301 64.6318 1.19434C64.6904 1.2998 64.7314 1.42578 64.7549 1.57227C64.7783 1.71875 64.79 1.87109 64.79 2.0293C64.79 2.27539 64.7695 2.52441 64.7285 2.77637C64.6875 3.02832 64.6406 3.25684 64.5879 3.46191C64.5586 3.62598 64.5176 3.86035 64.4648 4.16504C64.418 4.46973 64.3594 4.82129 64.2891 5.21973C64.2246 5.6123 64.1543 6.04004 64.0781 6.50293C64.002 6.95996 63.9229 7.42578 63.8408 7.90039C63.7646 8.375 63.6855 8.84375 63.6035 9.30664C63.5273 9.76953 63.4541 10.2031 63.3838 10.6074C63.3193 11.0059 63.2578 11.3633 63.1992 11.6797C63.1465 11.9961 63.1025 12.2422 63.0674 12.418C63.0498 12.5 63.0205 12.6113 62.9795 12.752C62.9443 12.8926 62.8887 13.0303 62.8125 13.165C62.7422 13.2998 62.6455 13.417 62.5225 13.5166C62.4053 13.6162 62.2588 13.666 62.083 13.666C61.9893 13.666 61.8984 13.6367 61.8105 13.5781C61.7285 13.5137 61.6523 13.4346 61.582 13.3408C61.5176 13.2471 61.4648 13.1475 61.4238 13.042C61.3887 12.9307 61.3682 12.8311 61.3623 12.7432L63.1904 4.05957C63.208 3.97754 63.2227 3.9043 63.2344 3.83984C63.2461 3.77539 63.252 3.71387 63.252 3.65527C63.252 3.59082 63.2432 3.53223 63.2256 3.47949C63.2139 3.42676 63.2021 3.37695 63.1904 3.33008C63.1729 3.27734 63.1553 3.23047 63.1377 3.18945C62.874 3.38867 62.5898 3.64355 62.2852 3.9541C61.9863 4.25879 61.6816 4.60156 61.3711 4.98242C61.0664 5.35742 60.7588 5.75879 60.4482 6.18652C60.1436 6.6084 59.8535 7.0332 59.5781 7.46094C59.3613 7.79492 59.127 8.14648 58.875 8.51562C58.6289 8.88477 58.3799 9.25684 58.1279 9.63184C57.876 10.001 57.6299 10.373 57.3896 10.748C57.1553 11.1172 56.9414 11.4717 56.748 11.8115C56.6543 11.9756 56.5576 12.1865 56.458 12.4443C56.3584 12.7021 56.2471 12.9541 56.124 13.2002C56.0068 13.4463 55.8779 13.6572 55.7373 13.833C55.6025 14.0088 55.4473 14.0967 55.2715 14.0967C55.1367 14.0967 55.0225 14.0762 54.9287 14.0352C54.8408 13.9941 54.7705 13.9414 54.7178 13.877C54.665 13.8066 54.627 13.7275 54.6035 13.6396C54.5801 13.5459 54.5684 13.4463 54.5684 13.3408C54.5684 13.2061 54.5801 13.0713 54.6035 12.9365C54.6328 12.8018 54.6621 12.6729 54.6914 12.5498C54.8145 12.0342 54.9434 11.5215 55.0781 11.0117C55.2129 10.502 55.3506 9.98047 55.4912 9.44727C55.6377 8.91406 55.7871 8.36328 55.9395 7.79492C56.0918 7.2207 56.2471 6.61133 56.4053 5.9668C56.4463 5.78516 56.4932 5.58301 56.5459 5.36035C56.5986 5.13184 56.6484 4.90332 56.6953 4.6748C56.7422 4.44043 56.7803 4.21484 56.8096 3.99805C56.8389 3.78125 56.8535 3.58789 56.8535 3.41797C56.8535 3.26562 56.8418 3.14551 56.8184 3.05762C56.7949 2.96387 56.751 2.91699 56.6865 2.91699C56.4697 2.91699 56.2412 2.99902 56.001 3.16309C55.7607 3.32129 55.5176 3.53223 55.2715 3.7959C55.0254 4.05957 54.7822 4.36133 54.542 4.70117C54.3018 5.04102 54.0732 5.39258 53.8564 5.75586C53.6396 6.11328 53.4375 6.46777 53.25 6.81934C53.0625 7.1709 52.9014 7.4873 52.7666 7.76855C52.7373 7.82715 52.6934 7.90918 52.6348 8.01465C52.582 8.11426 52.5088 8.25781 52.415 8.44531C52.3271 8.62695 52.2158 8.86133 52.0811 9.14844C51.9521 9.43555 51.7969 9.79883 51.6152 10.2383C51.4395 10.6777 51.2344 11.2021 51 11.8115C50.7656 12.4209 50.502 13.1357 50.209 13.9561C50.1562 14.0967 50.0625 14.2109 49.9277 14.2988C49.7988 14.3867 49.6641 14.4307 49.5234 14.4307C49.2188 14.4307 48.9932 14.3486 48.8467 14.1846C48.7061 14.0205 48.6357 13.8184 48.6357 13.5781C48.6357 13.4727 48.6504 13.3555 48.6797 13.2266Z"
      fill="#045396"
    />
</g>
<g filter="url(#filter1_d_0_1)">
<line
      x1="4.5"
      y1="19.5"
      x2="90.5"
      y2="19.5"
      stroke="white"
      stroke-linecap="round"
    />
</g>
<g filter="url(#filter2_d_0_1)">
<line
      x1="15.5"
      y1="22.5"
      x2="90.5"
      y2="22.5"
      stroke="white"
      stroke-linecap="round"
    />
</g>
<defs>
<filter
      id="filter0_d_0_1"
      x="3.64355"
      y="0.833984"
      width="90.5996"
      height="21.5967"
      filterUnits="userSpaceOnUse"
      color-interpolation-filters="sRGB"
    >
<feFlood flood-opacity="0" result="BackgroundImageFix" />
<feColorMatrix
        in="SourceAlpha"
        type="matrix"
        values="0 0 0 0 0 0 0 0 0 0 0 0 0 0 0 0 0 0 127 0"
        result="hardAlpha"
      />
<feOffset dy="4" />
<feGaussianBlur stdDeviation="2" />
<feComposite in2="hardAlpha" operator="out" />
<feColorMatrix
        type="matrix"
        values="0 0 0 0 0 0 0 0 0 0 0 0 0 0 0 0 0 0 0.25 0"
      />
<feBlend
        mode="normal"
        in2="BackgroundImageFix"
        result="effect1_dropShadow_0_1"
      />
<feBlend
        mode="normal"
        in="SourceGraphic"
        in2="effect1_dropShadow_0_1"
        result="shape"
      />
</filter>
<filter
      id="filter1_d_0_1"
      x="0"
      y="19"
      width="95"
      height="9"
      filterUnits="userSpaceOnUse"
      color-interpolation-filters="sRGB"
    >
<feFlood flood-opacity="0" result="BackgroundImageFix" />
<feColorMatrix
        in="SourceAlpha"
        type="matrix"
        values="0 0 0 0 0 0 0 0 0 0 0 0 0 0 0 0 0 0 127 0"
        result="hardAlpha"
      />
<feOffset dy="4" />
<feGaussianBlur stdDeviation="2" />
<feComposite in2="hardAlpha" operator="out" />
<feColorMatrix
        type="matrix"
        values="0 0 0 0 0 0 0 0 0 0 0 0 0 0 0 0 0 0 0.25 0"
      />
<feBlend
        mode="normal"
        in2="BackgroundImageFix"
        result="effect1_dropShadow_0_1"
      />
<feBlend
        mode="normal"
        in="SourceGraphic"
        in2="effect1_dropShadow_0_1"
        result="shape"
      />
</filter>
<filter
      id="filter2_d_0_1"
      x="11"
      y="22"
      width="84"
      height="9"
      filterUnits="userSpaceOnUse"
      color-interpolation-filters="sRGB"
    >
<feFlood flood-opacity="0" result="BackgroundImageFix" />
<feColorMatrix
        in="SourceAlpha"
        type="matrix"
        values="0 0 0 0 0 0 0 0 0 0 0 0 0 0 0 0 0 0 127 0"
        result="hardAlpha"
      />
<feOffset dy="4" />
<feGaussianBlur stdDeviation="2" />
<feComposite in2="hardAlpha" operator="out" />
<feColorMatrix
        type="matrix"
        values="0 0 0 0 0 0 0 0 0 0 0 0 0 0 0 0 0 0 0.25 0"
      />
<feBlend
        mode="normal"
        in2="BackgroundImageFix"
        result="effect1_dropShadow_0_1"
      />
<feBlend
        mode="normal"
        in="SourceGraphic"
        in2="effect1_dropShadow_0_1"
        result="shape"
      />
</filter>
</defs>
</svg>
